<?xml version="1.0" encoding="UTF-8"?>
<svg version="1.1" xmlns="http://www.w3.org/2000/svg" width="503" height="197">
<path d="M0 0 C6.538125 -0.061875 13.07625 -0.12375 19.8125 -0.1875 C21.85284424 -0.21481201 23.89318848 -0.24212402 25.99536133 -0.27026367 C49.22650827 -0.45341176 49.22650827 -0.45341176 58.2734375 7.16015625 C63.52331085 12.7544783 65.30826832 18.46015277 65.5625 26.0625 C65.28921426 32.8577131 64.18256949 38.55762892 59.46875 43.65625 C55.67916667 47 55.67916667 47 53 47 C55.69541763 52.64904115 58.70311325 57.78729671 62.25 62.9375 C67 69.8823736 67 69.8823736 67 71 C49.95711738 73.29593237 49.95711738 73.29593237 42 71 C37.48705436 67.29942587 35.52998321 62.29103374 33.30859375 57.03515625 C31.90496878 53.82597359 31.90496878 53.82597359 28.94970703 52.21044922 C26.48082768 51.85036943 26.48082768 51.85036943 23 52 C23.01160156 53.28777344 23.02320313 54.57554688 23.03515625 55.90234375 C23.0445327 57.58072772 23.05363305 59.25911326 23.0625 60.9375 C23.07087891 61.78763672 23.07925781 62.63777344 23.08789062 63.51367188 C23.09272461 64.72700195 23.09272461 64.72700195 23.09765625 65.96484375 C23.10551147 67.08814087 23.10551147 67.08814087 23.11352539 68.23413086 C23 70 23 70 22 71 C14.74 71 7.48 71 0 71 C0 47.57 0 24.14 0 0 Z M23 17 C23 22.94 23 28.88 23 35 C25.3925 35.0825 27.785 35.165 30.25 35.25 C31.37003418 35.30462402 31.37003418 35.30462402 32.51269531 35.36035156 C35.85235491 35.4160425 37.70515662 35.20845615 40.453125 33.265625 C42.94846079 29.61084026 42.79944362 26.26369932 42 22 C40.12379387 19.49839182 38.76108697 18.38054348 36 17 C31.66396021 16.8606671 27.33919329 16.95745889 23 17 Z " fill="#FDFDFD" transform="translate(305,31)"/>
<path d="M0 0 C9.838125 -0.0928125 9.838125 -0.0928125 19.875 -0.1875 C21.92444824 -0.21481201 23.97389648 -0.24212402 26.08544922 -0.27026367 C27.74185602 -0.27903986 29.39826938 -0.2866811 31.0546875 -0.29296875 C31.8887915 -0.30831665 32.72289551 -0.32366455 33.58227539 -0.33947754 C42.23770828 -0.34325281 50.45946404 1.53635049 57.23828125 7.16015625 C62.56740119 12.72560079 64.30963196 18.5063307 64.5625 26.125 C64.2191878 34.46387266 62.17633271 39.06060893 56.1875 44.75 C55.56230469 45.28109375 54.93710937 45.8121875 54.29296875 46.359375 C53.86628906 46.90078125 53.43960938 47.4421875 53 48 C53.45219307 51.18468315 54.72852243 53.39498071 56.50390625 56.0390625 C56.99697266 56.78414062 57.49003906 57.52921875 57.99804688 58.296875 C58.51431641 59.06515625 59.03058594 59.8334375 59.5625 60.625 C60.5887478 62.15610577 61.61109253 63.6898372 62.62890625 65.2265625 C63.08338135 65.90283691 63.53785645 66.57911133 64.00610352 67.27587891 C65 69 65 69 65 71 C44.50694843 72.62495656 44.50694843 72.62495656 38.88183594 68.41455078 C35.22827371 64.17931126 31 57.73440639 31 52 C28.03 52 25.06 52 22 52 C22 57.94 22 63.88 22 70 C14.48040153 71.01960657 7.76083877 71 0 71 C0 47.57 0 24.14 0 0 Z M22 18 C21.92674832 20.86267567 21.90761795 23.700719 21.9375 26.5625 C21.94201172 27.36880859 21.94652344 28.17511719 21.95117188 29.00585938 C21.96299482 31.00393756 21.98093086 33.00197783 22 35 C24.4178712 35.10826289 26.83087556 35.18739789 29.25 35.25 C29.93191406 35.28351563 30.61382812 35.31703125 31.31640625 35.3515625 C34.75366217 35.41830533 36.6278835 35.27773477 39.41796875 33.1953125 C41.69708906 30.03268135 42.067055 27.88918982 42 24 C39.92974335 20.71194532 38.42768739 18.55521176 34.75 17.125 C27.94137966 16.21737849 27.94137966 16.21737849 22 18 Z " fill="#FDFDFD" transform="translate(400,122)"/>
<path d="M0 0 C7.26 0 14.52 0 22 0 C22.03738281 2.85527344 22.07476562 5.71054688 22.11328125 8.65234375 C22.15959977 11.44253852 22.21079575 14.2326046 22.26245117 17.02270508 C22.295539 18.94970769 22.32362028 20.87680346 22.34643555 22.80395508 C22.38028037 25.58715209 22.4326086 28.36950771 22.48828125 31.15234375 C22.49467117 32.00271713 22.5010611 32.85309052 22.50764465 33.72923279 C22.64676992 39.49388888 23.52626798 44.74119126 26 50 C28.90104935 52.65929524 30.58945715 52.95601327 34.5 53.375 C38.27148402 52.97091243 40.09224684 52.40928119 43 50 C45.70803462 45.20350527 45.34954204 40.02184543 45.4140625 34.66796875 C45.43342865 33.67622147 45.4527948 32.68447418 45.4727478 31.66267395 C45.53238453 28.5043693 45.57886555 25.3460279 45.625 22.1875 C45.6631944 20.04230208 45.70224698 17.89711925 45.7421875 15.75195312 C45.8396836 10.50138196 45.91937911 5.25096581 46 0 C53.26 0 60.52 0 68 0 C69.55601385 3.11202769 69.16295504 6.41592305 69.16796875 9.83203125 C69.17296135 11.01341927 69.17296135 11.01341927 69.17805481 12.21867371 C69.18312703 13.89406755 69.18546304 15.56947153 69.18530273 17.24487305 C69.18745879 19.76434 69.20552498 22.28334676 69.22460938 24.80273438 C69.32741531 52.98499994 69.32741531 52.98499994 59.296875 63.84375 C51.05658011 71.41591287 41.62591853 72.40292714 30.79296875 72.2109375 C22.13653798 71.7295294 14.46039678 68.9045309 8 63 C1.23336175 54.21930883 -0.31019609 46.05010604 -0.1953125 35.25390625 C-0.1924826 34.24279282 -0.18965271 33.23167938 -0.18673706 32.18992615 C-0.17559889 28.98066048 -0.15050597 25.77168042 -0.125 22.5625 C-0.11496198 20.37825926 -0.10583757 18.19401411 -0.09765625 16.00976562 C-0.07738741 10.67298022 -0.03822624 5.33680743 0 0 Z " fill="#FDFDFD" transform="translate(110,122)"/>
<path d="M0 0 C18.81 0 37.62 0 57 0 C57 5.28 57 10.56 57 16 C49.25462133 16.9193113 41.6701049 17.12141649 33.875 17.0625 C32.15410156 17.05573242 32.15410156 17.05573242 30.3984375 17.04882812 C27.59890187 17.03716339 24.79948014 17.02079614 22 17 C22 20.3 22 23.6 22 27 C31.9 27 41.8 27 52 27 C52 31.95 52 36.9 52 42 C45.46313616 42.98831156 39.10422885 43.11883529 32.5 43.0625 C31.48679687 43.05798828 30.47359375 43.05347656 29.4296875 43.04882812 C26.95309907 43.0371461 24.47654144 43.01921455 22 43 C22 46.63 22 50.26 22 54 C33.55 54 45.1 54 57 54 C57 59.61 57 65.22 57 71 C38.19 71 19.38 71 0 71 C0 47.57 0 24.14 0 0 Z " fill="#FDFDFD" transform="translate(418,31)"/>
<path d="M0 0 C18.48 0 36.96 0 56 0 C56 5.61 56 11.22 56 17 C44.78 17 33.56 17 22 17 C22 20.3 22 23.6 22 27 C31.9 27 41.8 27 52 27 C52 32.28 52 37.56 52 43 C42.1 43 32.2 43 22 43 C22 46.63 22 50.26 22 54 C33.55 54 45.1 54 57 54 C57 59.61 57 65.22 57 71 C49.68595628 71.02472631 42.37193692 71.04287256 35.05786133 71.05493164 C32.56990129 71.05995913 30.0819442 71.06678202 27.59399414 71.07543945 C24.01708243 71.08757426 20.4402098 71.09324419 16.86328125 71.09765625 C15.75165115 71.10281754 14.64002106 71.10797882 13.4947052 71.11329651 C11.93365303 71.11340981 11.93365303 71.11340981 10.34106445 71.11352539 C9.4283931 71.115746 8.51572174 71.11796661 7.57539368 71.12025452 C5 71 5 71 0 70 C0 46.9 0 23.8 0 0 Z " fill="#FDFDFD" transform="translate(192,122)"/>
<path d="M0 0 C7.26 0 14.52 0 22 0 C25.28461699 6.45532905 28.35569374 12.93349119 31.1796875 19.6015625 C31.55553986 20.48170013 31.93139221 21.36183777 32.31863403 22.26864624 C33.50698954 25.05287175 34.69118557 27.83884108 35.875 30.625 C37.0486981 33.38044917 38.22328945 36.13551477 39.39849854 38.89031982 C40.16459743 40.68680818 40.92970606 42.48371917 41.69378662 44.28106689 C43.47606981 48.46643071 45.27602077 52.64168659 47.12988281 56.79589844 C47.45852325 57.53440033 47.7871637 58.27290222 48.12576294 59.03378296 C48.73743837 60.40319996 49.35374577 61.77056126 49.97555542 63.13540649 C51.23463845 65.9553503 52 67.87091193 52 71 C44.41 71 36.82 71 29 71 C27.35 67.04 25.7 63.08 24 59 C15.09 58.67 6.18 58.34 -3 58 C-3.99 61.3 -4.98 64.6 -6 68 C-6.33 68.99 -6.66 69.98 -7 71 C-14.59 71 -22.18 71 -30 71 C-28.15154543 65.45463628 -26.40646501 60.38385125 -24.06640625 55.10546875 C-23.79212799 54.48312851 -23.51784973 53.86078827 -23.23526001 53.21958923 C-22.64996512 51.89247904 -22.06291479 50.56614181 -21.47421265 49.24053955 C-19.90961936 45.71731114 -18.35793164 42.188399 -16.8046875 38.66015625 C-16.48853989 37.94293396 -16.17239227 37.22571167 -15.84666443 36.48675537 C-12.04674367 27.85561151 -8.34505733 19.18274595 -4.64477539 10.50854492 C-4.1780542 9.41517822 -3.71133301 8.32181152 -3.23046875 7.1953125 C-2.82207764 6.23641113 -2.41368652 5.27750977 -1.99291992 4.28955078 C-1.36562296 2.84308142 -0.7050922 1.41018441 0 0 Z M10 24 C8.99600476 26.62353518 7.99665555 29.24867795 7 31.875 C6.71382812 32.62136719 6.42765625 33.36773437 6.1328125 34.13671875 C4.56663352 37.95985011 4.56663352 37.95985011 4 42 C8.62 42 13.24 42 18 42 C16.2177429 35.88940424 14.30678315 29.9317281 12 24 C11.34 24 10.68 24 10 24 Z " fill="#FDFDFD" transform="translate(107,31)"/>
<path d="M0 0 C0.37769531 0.42152344 0.75539063 0.84304687 1.14453125 1.27734375 C-0.44214453 5.18020142 -2.98897356 7.61255357 -5.98046875 10.52734375 C-7.34558594 11.86539063 -7.34558594 11.86539063 -8.73828125 13.23046875 C-9.43695313 13.9059375 -10.135625 14.58140625 -10.85546875 15.27734375 C-13.4098686 14.05519554 -15.52198735 12.80522641 -17.85546875 11.15234375 C-22.86636952 8.27971529 -28.26325632 8.51856323 -33.85546875 9.27734375 C-38.21732137 10.77984483 -41.51780685 13.25137047 -43.85546875 17.27734375 C-45.82572332 23.18810745 -45.66008976 29.90582919 -43.66796875 35.77734375 C-40.55798981 40.06696987 -36.97592192 42.84838008 -31.85546875 44.27734375 C-27.66129198 44.60448954 -23.96040037 44.30357666 -19.85546875 43.27734375 C-19.52546875 37.33734375 -19.19546875 31.39734375 -18.85546875 25.27734375 C-12.58546875 25.27734375 -6.31546875 25.27734375 0.14453125 25.27734375 C0.14453125 35.17734375 0.14453125 45.07734375 0.14453125 55.27734375 C-13.93811308 62.31866591 -27.58726513 66.40899218 -43.23046875 61.65234375 C-54.19441777 57.43770743 -61.16679742 51.27983282 -66.16796875 40.65234375 C-67.59520399 37.18197091 -68.5417183 34.04234919 -68.85546875 30.27734375 C-68.91863281 29.64699219 -68.98179688 29.01664063 -69.046875 28.3671875 C-69.6011563 18.51528439 -66.31512626 8.69024705 -59.90625 1.2109375 C-43.90931816 -13.87188395 -16.44914996 -15.27173712 0 0 Z " fill="#FDFDFD" transform="translate(97.85546875,130.72265625)"/>
<path d="M0 0 C-0.59561472 5.65833988 -2.4669993 10.92444011 -5 16 C-7 17 -7 17 -8.8046875 16.4765625 C-9.48789062 16.19554687 -10.17109375 15.91453125 -10.875 15.625 C-16.13946718 13.48318256 -20.38501776 12.84245815 -26.125 12.8125 C-27.36507813 12.79832031 -28.60515625 12.78414062 -29.8828125 12.76953125 C-33.10175457 12.66639157 -33.10175457 12.66639157 -35 15 C-35.16687448 17.58354218 -35.16687448 17.58354218 -35 20 C-33.91203125 20.24234375 -32.8240625 20.4846875 -31.703125 20.734375 C-4.33792002 26.92691197 -4.33792002 26.92691197 1.875 35.625 C3.95332508 41.85997523 4.11943329 48.31198419 1.375 54.375 C-2.61507481 61.18732285 -8.76029547 64.43147874 -16 67 C-30.26164297 70.68121041 -46.18880064 67.78468676 -59 61 C-57.25192871 55.53262809 -55.34205919 50.24175152 -53 45 C-51.7625 45.433125 -50.525 45.86625 -49.25 46.3125 C-35.53240515 51.31225646 -35.53240515 51.31225646 -21.5 50 C-21.005 49.67 -20.51 49.34 -20 49 C-20 47.35 -20 45.7 -20 44 C-20.78761719 43.75765625 -21.57523437 43.5153125 -22.38671875 43.265625 C-24.68047722 42.55985316 -26.97338681 41.85131894 -29.265625 41.140625 C-31.68648903 40.40119791 -34.11340184 39.68118449 -36.546875 38.984375 C-44.38928545 36.70754616 -50.66128661 34.4827234 -56 28 C-58.68648767 22.08972712 -58.84517299 16.09204474 -57 9.9375 C-54.23242277 3.41575552 -48.62146068 -0.57890891 -42.3125 -3.4375 C-28.95186666 -7.74197183 -12.47737248 -6.23868624 0 0 Z " fill="#FDFDFD" transform="translate(384,126)"/>
<path d="M0 0 C0.92272705 -0.00056396 1.8454541 -0.00112793 2.79614258 -0.00170898 C11.0953619 0.1310147 18.38471189 1.62985594 25.875 5.375 C25.21809381 9.15739671 24.154869 12.59341526 22.8125 16.1875 C22.45027344 17.16332031 22.08804688 18.13914063 21.71484375 19.14453125 C21.43769531 19.88058594 21.16054688 20.61664063 20.875 21.375 C19.67875 21.08625 18.4825 20.7975 17.25 20.5 C13.10281826 19.5878825 8.94491861 18.84631735 4.75 18.1875 C3.61304688 18.00832031 2.47609375 17.82914063 1.3046875 17.64453125 C-2.34802762 17.35747277 -5.5280036 17.72973729 -9.125 18.375 C-9.125 20.685 -9.125 22.995 -9.125 25.375 C-8.03703125 25.61734375 -6.9490625 25.8596875 -5.828125 26.109375 C20.06464503 31.96871118 20.06464503 31.96871118 25.875 38.375 C29.33206724 44.36724988 29.7388514 49.81013819 28.4765625 56.48046875 C26.71144927 62.40620602 22.92260154 65.97688254 17.875 69.375 C3.82063087 76.4280198 -12.76121071 74.13638913 -27.125 69.375 C-29.14642277 68.41904499 -31.154943 67.43276907 -33.125 66.375 C-31.37692871 60.90762809 -29.46705919 55.61675152 -27.125 50.375 C-25.8875 50.808125 -24.65 51.24125 -23.375 51.6875 C-9.65740515 56.68725646 -9.65740515 56.68725646 4.375 55.375 C4.87 55.045 5.365 54.715 5.875 54.375 C6.00940778 51.94580135 6.00940778 51.94580135 4.875 49.375 C0.51757123 47.19628561 -3.92898136 46.1730632 -8.64672852 44.99853516 C-17.59213654 42.74424376 -24.75846626 40.31746994 -30.125 32.375 C-32.68742993 27.25014015 -32.03941708 19.22084437 -30.32421875 13.8828125 C-26.73865068 7.54954107 -20.69153347 3.66389576 -13.96875 1.234375 C-9.24911613 0.17917231 -4.82222243 -0.00741143 0 0 Z " fill="#FDFDFD" transform="translate(290.125,120.625)"/>
<path d="M0 0 C0.65742188 0.67095703 0.65742188 0.67095703 1.328125 1.35546875 C-0.25855078 5.25832642 -2.80537981 7.69067857 -5.796875 10.60546875 C-7.16199219 11.94351563 -7.16199219 11.94351563 -8.5546875 13.30859375 C-9.25335938 13.9840625 -9.95203125 14.65953125 -10.671875 15.35546875 C-13.46011586 14.02330923 -15.9850525 12.51628308 -18.546875 10.79296875 C-22.72373061 8.20070293 -25.8288729 6.8619277 -30.83203125 7.73046875 C-36.80963415 9.32715734 -40.35624491 12.14519289 -43.671875 17.35546875 C-45.58982902 23.10933082 -45.56490984 29.16153692 -43.046875 34.73046875 C-40.51540759 39.0965885 -37.53073272 41.59169229 -32.56640625 42.91796875 C-26.97611403 43.84166591 -22.64741756 43.03793518 -17.671875 40.35546875 C-14.76691968 38.3184697 -14.76691968 38.3184697 -12.671875 36.35546875 C-8.96142253 37.93327798 -6.37281116 40.26250123 -3.421875 42.98046875 C-2.52984375 43.79773438 -1.6378125 44.615 -0.71875 45.45703125 C-0.04328125 46.08351562 0.6321875 46.71 1.328125 47.35546875 C-1.51708133 53.70246749 -6.47267759 57.07221608 -12.796875 59.66796875 C-23.75915614 63.81822535 -35.73318667 63.53877794 -46.671875 59.35546875 C-56.43381915 54.01949081 -63.04358218 46.88682126 -66.671875 36.35546875 C-69.12690334 26.29147839 -68.19745308 16.13204718 -63.41796875 6.9453125 C-57.26802108 -3.0923405 -47.77676358 -8.21767676 -36.546875 -11.2109375 C-23.00552333 -13.4396183 -9.86897327 -9.40761882 0 0 Z " fill="#FDFDFD" transform="translate(74.671875,40.64453125)"/>
<path d="M0 0 C7.26 0 14.52 0 22 0 C22.643735 17.67972204 23.12203312 35.30519794 23 53 C33.56 53 44.12 53 55 53 C55 58.94 55 64.88 55 71 C36.85 71 18.7 71 0 71 C0 47.57 0 24.14 0 0 Z " fill="#FDFDFD" transform="translate(165,31)"/>
<path d="M0 0 C7.26 0 14.52 0 22 0 C22 23.43 22 46.86 22 71 C14.74 71 7.48 71 0 71 C0 47.57 0 24.14 0 0 Z " fill="#FDFDFD" transform="translate(382,31)"/>
<path d="M0 0 C6.19083079 4.40195789 10.30855049 8.30515222 14 15 C14.41507812 15.73863281 14.83015625 16.47726563 15.2578125 17.23828125 C19.61340795 26.29974731 19.50430273 37.54635015 16.375 47 C12.49889909 56.05327066 5.32218188 65.14383641 -4 69 C-4.99 69 -5.98 69 -7 69 C-7.12422509 64.83750393 -7.21462647 60.6760083 -7.2746582 56.51220703 C-7.29969925 55.09795318 -7.33374342 53.68382743 -7.37719727 52.27001953 C-7.77500928 38.98777843 -7.77500928 38.98777843 -4.54296875 35.2265625 C-3.70378906 34.49179688 -2.86460937 33.75703125 -2 33 C-0.85705686 29.57117059 -0.79035528 26.75917162 -0.68359375 23.14453125 C-0.66281265 22.48289474 -0.64203156 21.82125824 -0.62062073 21.13957214 C-0.55535273 19.03065148 -0.49634656 16.92160865 -0.4375 14.8125 C-0.39429311 13.38084685 -0.35067812 11.94920596 -0.30664062 10.51757812 C-0.19969494 7.01184846 -0.09836359 3.50598214 0 0 Z " fill="#FCFCFC" transform="translate(277,32)"/>
<path d="M0 0 C0.01401855 1.16402344 0.01401855 1.16402344 0.02832031 2.3515625 C0.08233437 5.90166287 0.16592303 9.45048948 0.25 13 C0.26417969 14.22074219 0.27835938 15.44148438 0.29296875 16.69921875 C0.50705002 24.62022592 1.09185687 30.70590358 6.62915039 36.79003906 C8.55171407 39.889424 8.24875625 42.11668863 8.07421875 45.734375 C8.01943359 47.02988281 7.96464844 48.32539062 7.90820312 49.66015625 C7.83497615 51.02345584 7.76140406 52.38673694 7.6875 53.75 C7.62420736 55.12884074 7.56234243 56.5077478 7.50195312 57.88671875 C7.3486799 61.25872962 7.18081816 64.62937221 7 68 C-2.48548341 64.99256681 -9.11524048 59.27409003 -13.81640625 50.484375 C-14.20699219 49.66453125 -14.59757813 48.8446875 -15 48 C-15.33902344 47.30390625 -15.67804688 46.6078125 -16.02734375 45.890625 C-19.58294335 37.17367115 -19.54385437 25.70969337 -16.0390625 16.98046875 C-13.37739727 11.9072948 -6.2375423 0 0 0 Z " fill="#FDFDFD" transform="translate(237,33)"/>
<path d="M0 0 C1.32 0 2.64 0 4 0 C4.33 7.92 4.66 15.84 5 24 C6.32 24 7.64 24 9 24 C9.33 16.41 9.66 8.82 10 1 C11.32 1 12.64 1 14 1 C14.12397147 5.46564301 14.21450992 9.93036439 14.2746582 14.3972168 C14.29974109 15.91529801 14.3338166 17.43325918 14.37719727 18.95092773 C14.43813293 21.13815965 14.46626895 23.32379039 14.48828125 25.51171875 C14.51446533 26.82615967 14.54064941 28.14060059 14.56762695 29.49487305 C13.85796984 33.87704388 12.43960345 35.28858238 9 38 C7.515 38.495 7.515 38.495 6 39 C6.0721875 40.258125 6.144375 41.51625 6.21875 42.8125 C7.4511161 65.16832271 7.4511161 65.16832271 7 75 C6 76 6 76 2.5625 76.25 C1.386875 76.1675 0.21125 76.085 -1 76 C-3.54236276 72.18645585 -3.09585312 70.41477757 -2.80078125 65.8828125 C-2.72502573 64.45707804 -2.65018448 63.03129475 -2.57617188 61.60546875 C-2.44827119 59.36413814 -2.31243691 57.12407361 -2.15991211 54.88427734 C-2.01695635 52.71774581 -1.90675052 50.5514253 -1.80078125 48.3828125 C-1.71997314 47.08746582 -1.63916504 45.79211914 -1.5559082 44.45751953 C-2.12455425 40.0302709 -3.66831853 38.85034062 -7 36 C-10.4303317 32.43570378 -10.35289185 29.7018702 -10.29296875 24.828125 C-10.28872391 24.1457074 -10.28447906 23.46328979 -10.28010559 22.76019287 C-10.26336972 20.58971996 -10.22572959 18.42019021 -10.1875 16.25 C-10.17244646 14.77475303 -10.15875922 13.29949145 -10.14648438 11.82421875 C-10.11348377 8.21584156 -10.06173767 4.6080129 -10 1 C-8.68 1 -7.36 1 -6 1 C-5.67 8.59 -5.34 16.18 -5 24 C-3.68 24 -2.36 24 -1 24 C-0.67 16.08 -0.34 8.16 0 0 Z " fill="#FCFCFC" transform="translate(255,28)"/>
<path d="M0 0 C0.7974855 2.31995782 1.11434828 3.61982909 0.3984375 6 C-1.80602852 10.30796412 -3.69433885 13.49670863 -8 16 C-11.8125 16.75 -11.8125 16.75 -15 17 C-14.14527615 12.10968128 -11.26286592 9.60997932 -8 6 C-11.96 7.98 -11.96 7.98 -16 10 C-15.875 6.6875 -15.875 6.6875 -15 3 C-10.35440156 -0.60033879 -5.60607869 -0.33636472 0 0 Z " fill="#F8F8F9" transform="translate(411,3)"/>
<path d="M0 0 C5.61093977 1.80691281 9.14444605 3.32660128 13 8 C14.1577506 11.47325181 14.06866652 14.36067448 14 18 C12.12452035 16.21829434 10.54194618 14.41702241 8.9375 12.375 C7.22133095 9.93968019 7.22133095 9.93968019 5 9 C5.3609375 9.54269531 5.721875 10.08539063 6.09375 10.64453125 C6.78984375 11.71767578 6.78984375 11.71767578 7.5 12.8125 C7.9640625 13.52019531 8.428125 14.22789063 8.90625 14.95703125 C10 17 10 17 10 20 C5.59815244 18.79949612 2.8660846 17.60914357 0 14 C-1.81814432 9.60615124 -1.47466857 4.4240057 0 0 Z " fill="#F7F7F8" transform="translate(378,0)"/>
</svg>
